<?xml version="1.0" encoding="UTF-8"?>
<!DOCTYPE svg PUBLIC "-//W3C//DTD SVG 1.1//EN" "http://www.w3.org/Graphics/SVG/1.1/DTD/svg11.dtd">
<svg xmlns="http://www.w3.org/2000/svg" version="1.1" width="512px" height="512px" style="shape-rendering:geometricPrecision; text-rendering:geometricPrecision; image-rendering:optimizeQuality; fill-rule:evenodd; clip-rule:evenodd" xmlns:xlink="http://www.w3.org/1999/xlink">
<g><path style="opacity:0.935" fill="#000000" d="M 41.5,-0.5 C 46.1667,-0.5 50.8333,-0.5 55.5,-0.5C 63.5501,2.38949 68.7168,8.05616 71,16.5C 71.5,157.833 71.6667,299.166 71.5,440.5C 212.167,440.333 352.834,440.5 493.5,441C 502.497,442.839 508.497,448.006 511.5,456.5C 511.5,461.167 511.5,465.833 511.5,470.5C 508.611,478.55 502.944,483.717 494.5,486C 353.5,486.5 212.5,486.667 71.5,486.5C 71.7281,498.569 66.3948,506.902 55.5,511.5C 50.8333,511.5 46.1667,511.5 41.5,511.5C 30.6161,506.91 25.2828,498.577 25.5,486.5C 12.9073,487.218 4.24067,481.884 -0.5,470.5C -0.5,465.833 -0.5,461.167 -0.5,456.5C 4.24126,445.14 12.9079,439.807 25.5,440.5C 25.3333,342.833 25.5,245.166 26,147.5C 29.0711,142.701 33.2378,141.535 38.5,144C 39.7014,144.903 40.5348,146.069 41,147.5C 41.6667,248.833 41.6667,350.167 41,451.5C 40.1667,453.667 38.6667,455.167 36.5,456C 30.8333,456.333 25.1667,456.667 19.5,457C 15.2985,460.025 14.4652,463.859 17,468.5C 17.7504,469.126 18.5838,469.626 19.5,470C 25.1667,470.333 30.8333,470.667 36.5,471C 37.9308,471.465 39.0975,472.299 40,473.5C 41.2453,479.39 41.912,485.39 42,491.5C 45.3116,495.941 49.3116,496.608 54,493.5C 55.2392,487.944 55.9059,482.278 56,476.5C 56.5,473.333 58.3333,471.5 61.5,471C 204.833,470.667 348.167,470.333 491.5,470C 495.409,467.434 496.409,463.934 494.5,459.5C 493.5,458.667 492.5,457.833 491.5,457C 347.833,456.667 204.167,456.333 60.5,456C 59.0692,455.535 57.9025,454.701 57,453.5C 55.6698,308.914 55.0031,164.247 55,19.5C 52.4338,15.5914 48.9338,14.5914 44.5,16.5C 43.6667,17.5 42.8333,18.5 42,19.5C 41.6667,54.1667 41.3333,88.8333 41,123.5C 38.5647,128.224 34.7314,129.724 29.5,128C 27.9512,126.786 26.7845,125.286 26,123.5C 25.3333,88.1667 25.3333,52.8333 26,17.5C 27.8391,8.50305 33.0058,2.50305 41.5,-0.5 Z"/></g>
<g><path style="opacity:0.921" fill="#000000" d="M 511.5,113.5 C 511.5,115.833 511.5,118.167 511.5,120.5C 504.873,145.335 498.373,170.335 492,195.5C 488.072,209.41 478.905,215.243 464.5,213C 458.57,211.078 453.737,207.578 450,202.5C 430.195,223.305 410.029,243.805 389.5,264C 378.87,265.924 375.37,261.757 379,251.5C 400.805,228.695 422.972,206.195 445.5,184C 448.964,183.183 452.298,183.517 455.5,185C 459.5,189 463.5,193 467.5,197C 470.257,197.782 472.757,197.282 475,195.5C 481.835,169.494 488.668,143.494 495.5,117.5C 494.5,114.5 492.5,112.5 489.5,111.5C 463.404,118.69 437.404,126.19 411.5,134C 409.15,136.373 408.983,138.873 411,141.5C 415.333,145.833 419.667,150.167 424,154.5C 425.04,158.533 424.374,162.199 422,165.5C 393.472,193.695 365.305,222.195 337.5,251C 333.091,252.262 329.257,251.428 326,248.5C 279.85,190.02 233.35,131.854 186.5,74C 184.365,73.3653 182.365,73.6986 180.5,75C 152.243,96.7124 124.076,118.546 96,140.5C 95.3333,142.5 95.3333,144.5 96,146.5C 99.7162,150.548 103.05,154.882 106,159.5C 107.739,161.741 109.906,163.408 112.5,164.5C 133.193,149.485 153.526,133.985 173.5,118C 176.366,116.543 179.366,116.21 182.5,117C 231.221,176.452 279.221,236.452 326.5,297C 328.695,298.373 331.029,298.706 333.5,298C 342.554,288.946 351.554,279.946 360.5,271C 367.236,269.199 371.236,271.699 372.5,278.5C 371.764,280.541 370.931,282.541 370,284.5C 361.5,293 353,301.5 344.5,310C 333.071,316.895 322.571,315.729 313,306.5C 268.528,249.727 223.694,193.227 178.5,137C 177.5,136.333 176.5,136.333 175.5,137C 158.014,150.909 140.347,164.575 122.5,178C 111.228,182.213 101.728,179.713 94,170.5C 90,165.167 86,159.833 82,154.5C 77.2993,143.672 79.1327,134.172 87.5,126C 115.452,105.049 143.119,83.716 170.5,62C 181.263,55.3928 191.43,56.2262 201,64.5C 245.093,120.349 289.426,176.016 334,231.5C 357.472,207.028 381.305,182.861 405.5,159C 393.253,149.522 390.753,138.022 398,124.5C 399.873,122.291 402.04,120.458 404.5,119C 432.762,110.309 461.262,102.476 490,95.5C 501.018,97.0258 508.184,103.026 511.5,113.5 Z"/></g>
<g><path style="opacity:0.934" fill="#000000" d="M 185.5,169.5 C 188.508,169.877 191.008,171.211 193,173.5C 193.667,257.833 193.667,342.167 193,426.5C 191.865,429.859 189.532,431.192 186,430.5C 181.175,430.677 178.509,428.344 178,423.5C 177.333,341.5 177.333,259.5 178,177.5C 178.68,172.989 181.18,170.323 185.5,169.5 Z"/></g>
<g><path style="opacity:0.933" fill="#000000" d="M 105.5,195.5 C 110.28,194.641 113.78,196.308 116,200.5C 116.667,275.833 116.667,351.167 116,426.5C 113.089,430.277 109.256,431.444 104.5,430C 102.951,428.786 101.785,427.286 101,425.5C 100.333,350.5 100.333,275.5 101,200.5C 102.025,198.313 103.525,196.646 105.5,195.5 Z"/></g>
<g><path style="opacity:0.932" fill="#000000" d="M 415.5,260.5 C 420.421,260.043 423.921,262.043 426,266.5C 426.667,319.167 426.667,371.833 426,424.5C 425.109,428.562 422.609,430.562 418.5,430.5C 415.029,430.849 412.529,429.516 411,426.5C 410.333,372.5 410.333,318.5 411,264.5C 412.397,262.93 413.897,261.596 415.5,260.5 Z"/></g>
<g><path style="opacity:0.931" fill="#000000" d="M 260.5,272.5 C 265.711,271.823 269.211,273.823 271,278.5C 271.667,327.5 271.667,376.5 271,425.5C 267.726,430.738 263.226,431.904 257.5,429C 256.874,428.25 256.374,427.416 256,426.5C 255.333,376.833 255.333,327.167 256,277.5C 257.025,275.313 258.525,273.646 260.5,272.5 Z"/></g>
<g><path style="opacity:0.929" fill="#000000" d="M 337.5,327.5 C 341.909,326.618 345.409,327.952 348,331.5C 348.667,363.167 348.667,394.833 348,426.5C 346.471,429.516 343.971,430.849 340.5,430.5C 336.823,430.664 334.323,428.997 333,425.5C 332.333,394.833 332.333,364.167 333,333.5C 333.599,330.746 335.099,328.746 337.5,327.5 Z"/></g>
</svg>
